<svg data-v-423bf9ae="" xmlns="http://www.w3.org/2000/svg" viewBox="0 0 481 102" class="iconLeft"><!----><!----><!----><g data-v-423bf9ae="" id="c397d719-1a6c-4303-8b0f-bc7ea266b3df" fill="#ffffff" transform="matrix(6.349206477356088,0,0,6.349206477356088,126.37264897335461,20.70820999077045)"><path d="M4.02 0.41C3.98 0.18 3.75 0 3.53 0L3.22 0C3.00 0 2.77 0.18 2.73 0.41L2.00 4.66L1.36 0.42C1.32 0.18 1.09 0 0.85 0L0.45 0C0.13 0-0.08 0.27-0.04 0.57L1.33 9.02C1.37 9.24 1.58 9.44 1.82 9.44L2.13 9.44C2.35 9.44 2.58 9.25 2.62 9.03L3.37 4.56L4.12 9.03C4.16 9.25 4.38 9.44 4.61 9.44L4.93 9.44C5.17 9.44 5.39 9.24 5.43 9.02L6.78 0.57C6.82 0.27 6.58 0 6.27 0L5.87 0C5.63 0 5.39 0.18 5.36 0.42L4.73 4.63ZM8.34 0C8.06 0 7.84 0.22 7.84 0.50L7.84 8.93C7.84 9.21 8.06 9.44 8.34 9.44L11.37 9.44C11.65 9.44 11.87 9.21 11.87 8.93L11.87 8.55C11.87 8.27 11.65 8.05 11.37 8.05L9.23 8.05L9.23 5.40L10.99 5.40C11.27 5.40 11.49 5.18 11.49 4.90L11.49 4.52C11.49 4.24 11.27 4.02 10.99 4.02L9.23 4.02L9.23 1.39L11.37 1.39C11.65 1.39 11.87 1.16 11.87 0.88L11.87 0.50C11.87 0.22 11.65 0 11.37 0ZM16.04 9.04C16.10 9.25 16.32 9.44 16.53 9.44L16.94 9.44C17.28 9.44 17.50 9.14 17.43 8.82L15.50 0.39C15.46 0.18 15.22 0 15.01 0L14.70 0C14.49 0 14.27 0.18 14.21 0.39L12.94 5.87L12.26 8.83C12.19 9.16 12.42 9.44 12.75 9.44L13.16 9.44C13.37 9.44 13.59 9.25 13.65 9.04L14.14 6.86L15.57 6.86ZM14.85 3.23C15.12 4.42 15.09 4.80 15.25 5.47L14.46 5.47ZM16.98 0.88C16.98 1.16 17.21 1.39 17.49 1.39L18.62 1.39L18.62 8.92C18.62 9.20 18.84 9.42 19.12 9.42L19.50 9.42C19.78 9.42 20.01 9.20 20.01 8.92L20.01 1.39L21.15 1.39C21.43 1.39 21.66 1.16 21.66 0.88L21.66 0.49C21.66 0.21 21.43-0.01 21.15-0.01L17.49-0.01C17.21-0.01 16.98 0.21 16.98 0.49ZM23.51 4.03L23.51 0.50C23.51 0.22 23.28 0 23.00 0L22.61 0C22.33 0 22.11 0.22 22.11 0.50L22.11 8.93C22.11 9.21 22.33 9.44 22.61 9.44L23.00 9.44C23.28 9.44 23.51 9.21 23.51 8.93L23.51 5.42L25.06 5.42L25.06 8.93C25.06 9.21 25.28 9.44 25.56 9.44L25.96 9.44C26.24 9.44 26.46 9.21 26.46 8.93L26.46 0.50C26.46 0.22 26.24 0 25.96 0L25.56 0C25.28 0 25.06 0.22 25.06 0.50L25.06 4.03ZM28.11 0C27.83 0 27.61 0.22 27.61 0.50L27.61 8.93C27.61 9.21 27.83 9.44 28.11 9.44L31.14 9.44C31.42 9.44 31.64 9.21 31.64 8.93L31.64 8.55C31.64 8.27 31.42 8.05 31.14 8.05L28.99 8.05L28.99 5.40L30.76 5.40C31.04 5.40 31.26 5.18 31.26 4.90L31.26 4.52C31.26 4.24 31.04 4.02 30.76 4.02L28.99 4.02L28.99 1.39L31.14 1.39C31.42 1.39 31.64 1.16 31.64 0.88L31.64 0.50C31.64 0.22 31.42 0 31.14 0ZM37.07 6.58C37.07 5.85 36.88 5.28 36.47 4.84C36.51 4.80 36.54 4.77 36.58 4.73C37.02 4.30 37.17 3.60 37.17 2.73C37.17 0.85 36.57-0.01 34.85-0.01L33.08-0.01C32.80-0.01 32.58 0.21 32.58 0.49L32.58 8.92C32.58 9.20 32.80 9.42 33.08 9.42L33.47 9.42C33.74 9.42 33.96 9.20 33.96 8.92L33.96 5.49L34.59 5.49C35.28 5.49 35.67 5.88 35.67 6.58L35.67 8.92C35.67 9.20 35.90 9.42 36.18 9.42L36.57 9.42C36.85 9.42 37.07 9.20 37.07 8.92ZM33.96 1.39L34.85 1.39C35.57 1.39 35.78 1.78 35.78 2.73C35.78 3.68 35.38 4.07 34.59 4.07L33.96 4.07ZM42.27 9.44C42.55 9.44 42.77 9.21 42.77 8.93L42.77 0.50C42.77 0.22 42.55 0 42.27 0L41.87 0C41.59 0 41.37 0.22 41.37 0.50L41.37 5.12L39.42 0.31C39.37 0.15 39.14 0 38.96 0L38.63 0C38.36 0 38.12 0.22 38.12 0.50L38.12 8.93C38.12 9.21 38.36 9.44 38.63 9.44L39.03 9.44C39.30 9.44 39.54 9.21 39.54 8.93L39.54 4.31L41.48 9.13C41.54 9.28 41.78 9.44 41.94 9.44ZM43.88 6.69C43.88 7.80 44.18 8.44 44.62 8.88C45.08 9.32 45.67 9.44 46.17 9.44C46.69 9.44 47.28 9.32 47.74 8.88C48.17 8.44 48.47 7.80 48.47 6.69L48.47 2.73C48.47 0.95 47.71 0 46.17 0C44.65 0 43.88 0.97 43.88 2.73ZM45.28 2.73C45.28 1.82 45.56 1.39 46.17 1.39C46.77 1.39 47.07 1.79 47.07 2.73L47.07 6.69C47.07 7.64 46.76 8.05 46.17 8.05C45.57 8.05 45.28 7.62 45.28 6.69ZM53.05 0.41C53.00 0.18 52.78 0 52.56 0L52.25 0C52.02 0 51.80 0.18 51.76 0.41L51.03 4.66L50.39 0.42C50.34 0.18 50.12 0 49.88 0L49.48 0C49.15 0 48.94 0.27 48.99 0.57L50.36 9.02C50.40 9.24 50.61 9.44 50.85 9.44L51.16 9.44C51.38 9.44 51.60 9.25 51.65 9.03L52.40 4.56L53.14 9.03C53.19 9.25 53.41 9.44 53.63 9.44L53.96 9.44C54.19 9.44 54.42 9.24 54.46 9.02L55.80 0.57C55.85 0.27 55.61 0 55.30 0L54.89 0C54.66 0 54.42 0.18 54.39 0.42L53.76 4.63Z"></path></g><!----><g data-v-423bf9ae="" id="370d8c7d-3755-438d-8bb4-044cca8e5604" transform="matrix(1.0608667161729601,0,0,1.0608667161729601,0.956134049369652,-1.782338167037011)" stroke="none" fill="#D7F9FF"><path d="M58.585 35.762l6.475.398-6.037 2.381a26.714 26.714 0 0 0-.438-2.779zm-1.18-3.977l6.455-.619-5.587 3.293a26.321 26.321 0 0 0-.868-2.674zm-1.792-3.743l6.282-1.622-5.004 4.127a26.208 26.208 0 0 0-1.278-2.505zm-2.344-3.401l13.869-7.226-11.932 9.95a26.417 26.417 0 0 0-1.937-2.724zm-3.295-3.394L72.151 2.261 52.765 24.038a26.743 26.743 0 0 0-2.791-2.791zm-3.229-2.38L58.179 5.559l-8.69 15.281a26.332 26.332 0 0 0-2.744-1.973zm-3.281-1.748l6.289-9.331-3.784 10.609a26.798 26.798 0 0 0-2.505-1.278zm-3.912-1.381l4.006-7.816-1.331 8.684a26.092 26.092 0 0 0-2.675-.868zm-4.081-.749l2.381-6.038.397 6.475a26.389 26.389 0 0 0-2.778-.437zm-4.148-.103l1.408-6.337 1.407 6.337a27.378 27.378 0 0 0-2.815 0zm-4.111.54l.398-6.475 2.381 6.038a26.49 26.49 0 0 0-2.779.437zm-3.977 1.18l-.619-6.455 3.294 5.587c-.911.242-1.804.533-2.675.868zm-3.742 1.792l-1.621-6.282 4.127 5.003c-.861.383-1.697.81-2.506 1.279zm-3.415 2.356L13.492 14.8l4.861 4.298a26.63 26.63 0 0 0-2.275 1.656zm-3.005 2.858l-3.486-5.477 5.477 3.486a26.525 26.525 0 0 0-1.991 1.991zm-2.524 3.291l-4.298-4.862 5.954 2.586a26.704 26.704 0 0 0-1.656 2.276zM8.57 30.547L3.567 26.42l6.281 1.622a26.68 26.68 0 0 0-1.278 2.505zm-1.382 3.912l-5.586-3.294 6.455.619a26.596 26.596 0 0 0-.869 2.675zm-.748 4.082L.403 36.16l6.475-.399c-.193.91-.34 1.838-.438 2.78zm-.103 4.147L0 41.28l6.337-1.408a26.326 26.326 0 0 0 0 2.816zm.541 4.111L.403 46.4l6.037-2.38c.098.941.245 1.869.438 2.779zm1.18 3.976l-6.456.619L7.189 48.1c.243.913.533 1.805.869 2.675zm1.791 3.743L3.567 56.14l5.003-4.127c.382.86.81 1.696 1.279 2.505zm-.366 2.344l1.065-1.205c.089.138.18.274.271.409-.459.245-.905.51-1.336.796zM9.914 41.28c0-12.602 10.216-22.817 22.817-22.817 12.439 0 22.553 9.954 22.812 22.331a22.68 22.68 0 0 0-6.989 5 20.234 20.234 0 0 0-5.926-.882c-7.799 0-14.562 4.409-17.942 10.868a15.405 15.405 0 0 0-6.648-1.5 15.48 15.48 0 0 0-3.735.455A22.706 22.706 0 0 1 9.914 41.28z"></path><path d="M83.893 59.657a10.96 10.96 0 0 1 5.099-1.249c6.08 0 11.009 4.928 11.009 11.009 0 1.729-.398 3.364-1.108 4.821H79.091l-.049-.102-.092.102H7.092a11.815 11.815 0 0 1-.887-4.503c0-6.534 5.298-11.832 11.832-11.832 3.284 0 6.255 1.338 8.399 3.498 1.699-7.371 8.305-12.867 16.191-12.867 2.516 0 4.9.559 7.037 1.559 3.462-4.687 9.025-7.727 15.299-7.727 9.919.001 18.063 7.598 18.93 17.291z"></path><path clip-rule="evenodd" d="M52.361 78.836c.342-1.14 3.561-5.177 3.615-5.177.02 0 .853 4.037.511 5.177-.342 1.139-1.543 2.062-2.682 2.062s-1.785-.923-1.444-2.062zM57.251 84.268c.342-1.139 3.561-5.176 3.615-5.176.02 0 .852 4.037.51 5.176-.342 1.14-1.543 2.063-2.682 2.063s-1.785-.924-1.443-2.063zM65.399 78.836c.342-1.14 3.561-5.177 3.615-5.177.02 0 .852 4.037.51 5.177-.342 1.139-1.542 2.062-2.682 2.062-1.138 0-1.784-.923-1.443-2.062zM70.288 84.268c.342-1.139 3.561-5.176 3.616-5.176.02 0 .852 4.037.51 5.176-.342 1.14-1.542 2.063-2.682 2.063s-1.786-.924-1.444-2.063zM78.438 78.836c.342-1.14 3.561-5.177 3.616-5.177.02 0 .852 4.037.51 5.177-.342 1.139-1.543 2.062-2.682 2.062-1.14 0-1.786-.923-1.444-2.062zM83.327 84.268c.342-1.139 3.561-5.176 3.615-5.176.02 0 .852 4.037.51 5.176-.342 1.14-1.542 2.063-2.682 2.063-1.138 0-1.785-.924-1.443-2.063zM91.476 78.836c.342-1.14 3.561-5.177 3.615-5.177.02 0 .852 4.037.511 5.177-.342 1.139-1.542 2.062-2.682 2.062s-1.786-.923-1.444-2.062zM53.828 95.676c.342-1.139 3.561-5.176 3.616-5.176.019 0 .851 4.037.51 5.176-.342 1.141-1.543 2.063-2.682 2.063s-1.786-.923-1.444-2.063zM61.978 90.244c.342-1.14 3.561-5.176 3.615-5.176.02 0 .852 4.036.51 5.176-.342 1.139-1.543 2.062-2.682 2.062s-1.786-.923-1.443-2.062zM66.866 95.676c.342-1.139 3.561-5.176 3.615-5.176.02 0 .852 4.037.51 5.176-.342 1.141-1.542 2.063-2.682 2.063-1.138 0-1.785-.923-1.443-2.063zM75.015 90.244c.342-1.14 3.561-5.176 3.616-5.176.02 0 .852 4.036.51 5.176-.342 1.139-1.542 2.062-2.682 2.062s-1.786-.923-1.444-2.062zM79.904 95.676c.342-1.139 3.561-5.176 3.616-5.176.02 0 .852 4.037.51 5.176-.342 1.141-1.543 2.063-2.682 2.063s-1.786-.923-1.444-2.063zM88.054 90.244c.342-1.14 3.561-5.176 3.615-5.176.02 0 .852 4.036.51 5.176-.342 1.139-1.543 2.062-2.682 2.062s-1.785-.923-1.443-2.062zM95.223 42.765l-1.945-.343 1.55-1.085c.619-.434.77-1.287.336-1.906l-.072-.103a1.368 1.368 0 0 0-1.906-.336l-3.995 2.797-3.624-.639 2.555-2.836 4.871-.255a1.37 1.37 0 0 0 1.295-1.438l-.007-.125a1.369 1.369 0 0 0-1.438-1.295l-1.889.099 1.322-1.468a1.368 1.368 0 0 0-.102-1.933l-.094-.083-.064-.058a1.368 1.368 0 0 0-1.933.101l-1.351 1.5-.105-2.012a1.369 1.369 0 0 0-1.438-1.295l-.125.006a1.369 1.369 0 0 0-1.296 1.438l.255 4.871-2.855 3.17-1.598-3.956 1.906-4.489a1.369 1.369 0 0 0-.726-1.795l-.115-.049a1.37 1.37 0 0 0-1.795.725l-.787 1.854-.756-1.871a1.368 1.368 0 0 0-1.782-.756l-.115.047h-.001l-.08.033a1.37 1.37 0 0 0-.757 1.782l.74 1.832-1.74-.739a1.369 1.369 0 0 0-1.795.725l-.049.115c-.296.696.029 1.5.725 1.794l4.489 1.906 1.43 3.539-4.044-.713-2.797-3.995a1.369 1.369 0 0 0-1.907-.336l-.103.072a1.368 1.368 0 0 0-.336 1.906l1.155 1.65-1.987-.351a1.37 1.37 0 0 0-1.586 1.11l-.022.123v.001l-.016.085a1.369 1.369 0 0 0 1.111 1.585l1.945.343-1.55 1.085a1.368 1.368 0 0 0-.336 1.906l.071.103c.434.619 1.287.77 1.906.336l3.996-2.797 4.119.727-2.707 3.005-4.87.255a1.37 1.37 0 0 0-1.296 1.438l.007.125c.04.755.684 1.335 1.438 1.295l1.889-.099-1.322 1.468a1.368 1.368 0 0 0 .102 1.933l.094.084c.561.506 1.427.46 1.933-.102l1.409-1.564.111 2.134a1.37 1.37 0 0 0 1.438 1.296l.125-.008a1.37 1.37 0 0 0 1.296-1.438l-.256-4.871 2.855-3.171 1.599 3.957-1.905 4.49a1.369 1.369 0 0 0 .725 1.795l.115.049c.695.295 1.5-.029 1.795-.726l.835-1.968.788 1.952c.283.7 1.082 1.04 1.783.757l.115-.047a1.37 1.37 0 0 0 .756-1.782l-.74-1.832 1.742.739a1.37 1.37 0 0 0 1.795-.725l.049-.115a1.369 1.369 0 0 0-.726-1.795l-4.489-1.906-1.516-3.75 3.785.667 2.798 3.995c.434.619 1.287.77 1.906.336l.103-.072a1.37 1.37 0 0 0 .336-1.907l-1.226-1.751 2.073.366a1.37 1.37 0 0 0 1.586-1.11l.021-.123a1.363 1.363 0 0 0-1.107-1.583z"></path></g><!----></svg>