<svg data-v-fde0c5aa="" xmlns="http://www.w3.org/2000/svg" viewBox="0 0 300 300" class="font"><!----><defs data-v-fde0c5aa=""><!----></defs><rect data-v-fde0c5aa="" fill="#131214" x="0" y="0" width="300px" height="300px" class="logo-background-square"></rect><defs data-v-fde0c5aa=""><!----></defs><g data-v-fde0c5aa="" id="cd0e0862-63c8-42e6-a6a6-bcaec4e86840" fill="#ffffff" transform="matrix(3.9390175610043294,0,0,3.9390175610043294,40.176760344896124,131.42753257830663)"><path d="M4.02 0.41C3.98 0.18 3.75 0 3.53 0L3.22 0C3.00 0 2.77 0.18 2.73 0.41L2.00 4.66L1.36 0.42C1.32 0.18 1.09 0 0.85 0L0.45 0C0.13 0-0.08 0.27-0.04 0.57L1.33 9.02C1.37 9.24 1.58 9.44 1.82 9.44L2.13 9.44C2.35 9.44 2.58 9.25 2.62 9.03L3.37 4.56L4.12 9.03C4.16 9.25 4.38 9.44 4.61 9.44L4.93 9.44C5.17 9.44 5.39 9.24 5.43 9.02L6.78 0.57C6.82 0.27 6.58 0 6.27 0L5.87 0C5.63 0 5.39 0.18 5.36 0.42L4.73 4.63ZM8.34 0C8.06 0 7.84 0.22 7.84 0.50L7.84 8.93C7.84 9.21 8.06 9.44 8.34 9.44L11.37 9.44C11.65 9.44 11.87 9.21 11.87 8.93L11.87 8.55C11.87 8.27 11.65 8.05 11.37 8.05L9.23 8.05L9.23 5.40L10.99 5.40C11.27 5.40 11.49 5.18 11.49 4.90L11.49 4.52C11.49 4.24 11.27 4.02 10.99 4.02L9.23 4.02L9.23 1.39L11.37 1.39C11.65 1.39 11.87 1.16 11.87 0.88L11.87 0.50C11.87 0.22 11.65 0 11.37 0ZM16.04 9.04C16.10 9.25 16.32 9.44 16.53 9.44L16.94 9.44C17.28 9.44 17.50 9.14 17.43 8.82L15.50 0.39C15.46 0.18 15.22 0 15.01 0L14.70 0C14.49 0 14.27 0.18 14.21 0.39L12.94 5.87L12.26 8.83C12.19 9.16 12.42 9.44 12.75 9.44L13.16 9.44C13.37 9.44 13.59 9.25 13.65 9.04L14.14 6.86L15.57 6.86ZM14.85 3.23C15.12 4.42 15.09 4.80 15.25 5.47L14.46 5.47ZM16.98 0.88C16.98 1.16 17.21 1.39 17.49 1.39L18.62 1.39L18.62 8.92C18.62 9.20 18.84 9.42 19.12 9.42L19.50 9.42C19.78 9.42 20.01 9.20 20.01 8.92L20.01 1.39L21.15 1.39C21.43 1.39 21.66 1.16 21.66 0.88L21.66 0.49C21.66 0.21 21.43-0.01 21.15-0.01L17.49-0.01C17.21-0.01 16.98 0.21 16.98 0.49ZM23.51 4.03L23.51 0.50C23.51 0.22 23.28 0 23.00 0L22.61 0C22.33 0 22.11 0.22 22.11 0.50L22.11 8.93C22.11 9.21 22.33 9.44 22.61 9.44L23.00 9.44C23.28 9.44 23.51 9.21 23.51 8.93L23.51 5.42L25.06 5.42L25.06 8.93C25.06 9.21 25.28 9.44 25.56 9.44L25.96 9.44C26.24 9.44 26.46 9.21 26.46 8.93L26.46 0.50C26.46 0.22 26.24 0 25.96 0L25.56 0C25.28 0 25.06 0.22 25.06 0.50L25.06 4.03ZM28.11 0C27.83 0 27.61 0.22 27.61 0.50L27.61 8.93C27.61 9.21 27.83 9.44 28.11 9.44L31.14 9.44C31.42 9.44 31.64 9.21 31.64 8.93L31.64 8.55C31.64 8.27 31.42 8.05 31.14 8.05L28.99 8.05L28.99 5.40L30.76 5.40C31.04 5.40 31.26 5.18 31.26 4.90L31.26 4.52C31.26 4.24 31.04 4.02 30.76 4.02L28.99 4.02L28.99 1.39L31.14 1.39C31.42 1.39 31.64 1.16 31.64 0.88L31.64 0.50C31.64 0.22 31.42 0 31.14 0ZM37.07 6.58C37.07 5.85 36.88 5.28 36.47 4.84C36.51 4.80 36.54 4.77 36.58 4.73C37.02 4.30 37.17 3.60 37.17 2.73C37.17 0.85 36.57-0.01 34.85-0.01L33.08-0.01C32.80-0.01 32.58 0.21 32.58 0.49L32.58 8.92C32.58 9.20 32.80 9.42 33.08 9.42L33.47 9.42C33.74 9.42 33.96 9.20 33.96 8.92L33.96 5.49L34.59 5.49C35.28 5.49 35.67 5.88 35.67 6.58L35.67 8.92C35.67 9.20 35.90 9.42 36.18 9.42L36.57 9.42C36.85 9.42 37.07 9.20 37.07 8.92ZM33.96 1.39L34.85 1.39C35.57 1.39 35.78 1.78 35.78 2.73C35.78 3.68 35.38 4.07 34.59 4.07L33.96 4.07ZM42.27 9.44C42.55 9.44 42.77 9.21 42.77 8.93L42.77 0.50C42.77 0.22 42.55 0 42.27 0L41.87 0C41.59 0 41.37 0.22 41.37 0.50L41.37 5.12L39.42 0.31C39.37 0.15 39.14 0 38.96 0L38.63 0C38.36 0 38.12 0.22 38.12 0.50L38.12 8.93C38.12 9.21 38.36 9.44 38.63 9.44L39.03 9.44C39.30 9.44 39.54 9.21 39.54 8.93L39.54 4.31L41.48 9.13C41.54 9.28 41.78 9.44 41.94 9.44ZM43.88 6.69C43.88 7.80 44.18 8.44 44.62 8.88C45.08 9.32 45.67 9.44 46.17 9.44C46.69 9.44 47.28 9.32 47.74 8.88C48.17 8.44 48.47 7.80 48.47 6.69L48.47 2.73C48.47 0.95 47.71 0 46.17 0C44.65 0 43.88 0.97 43.88 2.73ZM45.28 2.73C45.28 1.82 45.56 1.39 46.17 1.39C46.77 1.39 47.07 1.79 47.07 2.73L47.07 6.69C47.07 7.64 46.76 8.05 46.17 8.05C45.57 8.05 45.28 7.62 45.28 6.69ZM53.05 0.41C53.00 0.18 52.78 0 52.56 0L52.25 0C52.02 0 51.80 0.18 51.76 0.41L51.03 4.66L50.39 0.42C50.34 0.18 50.12 0 49.88 0L49.48 0C49.15 0 48.94 0.27 48.99 0.57L50.36 9.02C50.40 9.24 50.61 9.44 50.85 9.44L51.16 9.44C51.38 9.44 51.60 9.25 51.65 9.03L52.40 4.56L53.14 9.03C53.19 9.25 53.41 9.44 53.63 9.44L53.96 9.44C54.19 9.44 54.42 9.24 54.46 9.02L55.80 0.57C55.85 0.27 55.61 0 55.30 0L54.89 0C54.66 0 54.42 0.18 54.39 0.42L53.76 4.63Z"></path></g><!----><!----></svg>